<svg width="280" height="280" xmlns="http://www.w3.org/2000/svg"><g transform="translate(78 134)"><path d="M44.19 16.106c-.172-5.11-4.398-9.309-9.896-10.106 3.366 1.959 5.686 5.495 5.686 9.677 0 5.668-5.473 10.568-11.803 10.568H28c1.358.487 2.84.755 4.392.755 5.322 0 9.821-3.153 11.294-7.486 2.475 2.156 6.177 3.525 10.314 3.525 4.137 0 7.84-1.37 10.314-3.525C65.787 23.847 70.286 27 75.608 27c1.552 0 3.034-.268 4.392-.756l-.177.001c-6.33 0-11.803-4.9-11.803-10.568 0-4.182 2.32-7.718 5.686-9.677-5.498.797-9.724 4.996-9.897 10.106-2.564 1.736-6.014 2.8-9.809 2.8-3.795 0-7.245-1.064-9.81-2.8z" opacity=".6"/><circle opacity=".2" fill="#FF4646" cx="17" cy="15" r="9"/><circle opacity=".2" fill="#FF4646" cx="91" cy="15" r="9"/></g></svg>