<svg width="280" height="280" xmlns="http://www.w3.org/2000/svg"><g transform="translate(78 134)"><defs><path d="M34.008 15.136C35.128 29.124 38.235 40.993 53.996 41c15.762.007 18.92-11.943 19.998-25.994.087-1.13-.82-2.006-1.957-2.006-6.686 0-9.367 1.994-18.048 2-8.68.006-13.232-2-17.897-2-1.143 0-2.196.737-2.084 2.136z" id="a"/></defs><mask id="b" fill="#fff"><use href="#a" transform="matrix(1 0 0 -1 0 54)"/></mask><use opacity=".7" transform="matrix(1 0 0 -1 0 54)" href="#a"/><rect fill="#FFF" mask="url(&quot;#b&quot;)" x="39" y="2" width="31" height="16" rx="5"/><g mask="url(&quot;#b&quot;)" fill="#FF4F6D"><g transform="translate(38 32)"><circle cx="11" cy="11" r="11"/><circle cx="21" cy="11" r="11"/></g></g></g></svg>