<svg width="280" height="280" xmlns="http://www.w3.org/2000/svg"><g transform="translate(78 134)"><defs><path d="M34.008 12.602c1.12 10.49 4.227 19.392 19.988 19.398 15.762.006 18.92-8.958 19.998-19.495.087-.848-.82-1.505-1.957-1.505-6.686 0-9.367 1.495-18.048 1.5-8.68.005-13.232-1.5-17.897-1.5-1.143 0-2.196.552-2.084 1.602z" id="a"/><path d="M59.917 36H60a6 6 0 1012 0v-5a6 6 0 00-6-6H42a6 6 0 00-6 6v7a6 6 0 1012 0v-2h.083a6.002 6.002 0 0111.834 0z" id="c"/><filter x="-1.4%" y="-2.6%" width="102.8%" height="105.3%" filterUnits="objectBoundingBox" id="d"><feOffset dy="-1" in="SourceAlpha" result="shadowOffsetInner1"/><feComposite in="shadowOffsetInner1" in2="SourceAlpha" operator="arithmetic" k2="-1" k3="1" result="shadowInnerInner1"/><feColorMatrix values="0 0 0 0 0 0 0 0 0 0 0 0 0 0 0 0 0 0 0.1 0" in="shadowInnerInner1"/></filter></defs><mask id="b" fill="#fff"><use href="#a" transform="matrix(1 0 0 -1 0 43)"/></mask><use opacity=".7" transform="matrix(1 0 0 -1 0 43)" href="#a"/><rect fill="#FFF" mask="url(&quot;#b&quot;)" x="39" width="31" height="16" rx="5"/><use fill="#88C553" href="#c"/><use filter="url(&quot;#d&quot;)" href="#c"/></g></svg>