<svg width="280" height="280" xmlns="http://www.w3.org/2000/svg"><defs><path id="a" d="M0 0h264v280H0z"/></defs><mask id="b" fill="#fff"><use href="#a"/></mask><g mask="url(&quot;#b&quot;)"><path d="M159.395 39.781c-3.077-3.088-6.276 3.858-7.772 5.647-3.61 4.32-7.083 8.755-10.755 13.024-7.252 8.43-14.429 16.922-21.634 25.388-1.094 1.286-.961 1.425-2.397 1.549-.951.082-2.274-.409-3.263-.463-2.75-.151-5.462.309-8.138.897-5.345 1.173-11.01 3.106-15.647 6.075-1.217.78-2.002 1.7-3.322 1.943-1.149.212-2.673-.211-3.845-.322-2.08-.195-5.084-1.046-7.127-.605-2.592.56-3.578 3.697-.935 5.086 2.01 1.056 6.01.476 8.264.645 2.573.192 1.788.06 1.423 2.52-.523 3.533.352 7.481 1.842 10.713 3.46 7.505 13.034 15.457 21.766 14.725 7.287-.61 13.672-7.19 16.664-13.503 1.532-3.231 2.436-6.908 2.731-10.472.189-2.266.084-4.67-.566-6.865-.321-1.085-.83-2.208-1.376-3.193-.442-.799-2.4-2.65-2.52-3.453-.232-1.557 4.185-5.73 5.028-6.773 3.973-4.916 7.964-9.812 11.906-14.755 3.881-4.869 7.784-9.725 11.768-14.51 1.804-2.17 10.828-10.364 7.905-13.298" class="CustomColor" fill="#28354B"/></g></svg>