<svg width="280" height="280" xmlns="http://www.w3.org/2000/svg"><defs><path id="a" d="M0 0h264v280H0z"/><path d="M156 180.611c17.53-8.328 30.048-25.496 31.791-45.744C193.57 134.002 198 129.02 198 123v-13c0-5.946-4.325-10.882-10-11.834V92a55.812 55.812 0 00-4.638-22.35C173.435 53 89.312 53.802 80.71 69.484A55.809 55.809 0 0076 92v6.166c-5.675.952-10 5.888-10 11.834v13c0 6.019 4.43 11.002 10.209 11.867 1.743 20.248 14.26 37.416 31.791 45.744V199h-4c-39.765 0-72 32.235-72 72v9h200v-9c0-39.765-32.235-72-72-72h-4v-18.389zM0 0h264v280H0V0z" id="c"/></defs><mask id="b" fill="#fff"><use href="#a"/></mask><g mask="url(&quot;#b&quot;)"><g><mask id="d" fill="#fff"><use href="#c"/></mask><path d="M123.182 2h18.636c18.791 0 35.049 13.08 39.072 31.436L190 75H75l9.11-41.564C88.133 15.08 104.39 2 123.182 2z" fill="#1F333C" mask="url(&quot;#d&quot;)"/><ellipse fill="#1F333C" mask="url(&quot;#d&quot;)" cx="132" cy="87.5" rx="122" ry="57.5"/><ellipse fill="#15232A" mask="url(&quot;#d&quot;)" cx="132" cy="82" rx="62" ry="25"/></g></g></svg>