<svg width="280" height="280" xmlns="http://www.w3.org/2000/svg"><defs><path id="a" d="M0 0h264v280H0z"/><path d="M85.718 185.073A73.225 73.225 0 0189 185h4v-18.389a56.224 56.224 0 01-26.789-26.99c-2.764-8.607-2.6-17.934-3.21-26.795-.805-11.68-.112-23.078 2.536-34.578 2.39-10.376 5.824-15.941 13.626-24.255 4.36-4.646 10.905-4.915 17.42-6.564 6.593-1.67 12.611-4.21 16.735-8.99 9.083 10.41 33.354 6.664 42.236 18.01 10.802 13.798 10.923 22.7 12.193 38.643.953 11.951-.528 33.564-.943 46.538A56.235 56.235 0 01141 166.611V185h4c6.636 0 13.062.898 19.163 2.578-2.05 3.174-4.494 6.18-7.051 8.973-3.831 4.188-7.681 8.52-12 12.367-4.941 4.401-9.668 7.597-12.668 13.082-1.358 2.483-3.737 5.094-1.22 7.817 2.3 2.487 5.925 1.975 8.386.175 3.637-2.66 6.338-6.858 9.69-9.915-3.238 5.815-7.742 14.484-5.43 21.005.787 2.217 1.586 2.173 2.802 3.65 1.92.044 2.678.912 2.276 2.606l.54 1.451c1.456 2.594 4.243 4.41 7.78 3.188 11.56-3.994-1.775-21.961 10.953-27.302 2.278 2.83-1.086 10.779-1.177 14.256-.111 4.287.122 14.013 6.642 15.179 8.496 1.52 5.22-6.597 5.555-10.05.39-4.016 2.86-9.312 4.87-12.869-1.222 3.78-3.508 12.154 2.817 13.87 7.317 1.986 6.481-6.586 7.592-10.15.229 5.275 7.045 17.749 13.205 7.896 3.173-5.076 1.009-13.441.66-18.854 4.414 4.56 7.94-1.35 7.84-4.63 1.677 4.752 7.982 18.002 13.57 7.485 3.398-6.395-.226-14.985-2.483-21.16 5.944.52 4.75-5.236 3.864-8.095-1.307-4.222-.61-4.841-.34-9.206 8.25 4.805 7.997-8.234 7.542-11.432-1.146-8.051-7.409-15.261-12.243-22.052-3.466-4.871-9.935-13.352-8.038-19.226 1.957 2.468 6.507 2.442 8.316-.142 1.532-2.188-.091-5.796-.83-7.982-2.021-5.98-6.06-9.844-9.711-14.981-7.108-10.001-6.086-23.133-6.743-34.313-.82-13.949-3.814-27.68-16.48-37.827-6.787-5.437-15.058-9.914-21.37-15.682-1.722-1.573-2.45-3.521-4.066-5.038-1.813-1.701-2.66-1.298-4.158-3.72-2.668-4.315-5.802-8.355-12.25-8.558-4.22-.132-9.556 3.43-13.359 2.909-3.122-.427-5.094-4.879-7.656-6.373-3.966-2.312-6.734-1.414-10.972-.075-6.31 1.994-10.33 2.689-16.755.306C97.69 2.539 93.565-.846 88.402.357c-4.05.945-5.858 4.213-8.244 6.718-2.46 2.586-1.271 1.73-4.87 2.305-3.68.588-6.586 1.122-9.378 3.532-4.512 3.895-1.386 9.955-4.953 13.389-1.925 1.854-5.935 2.737-8.165 4.654-2.434 2.092-4.424 4.635-6.248 7.11-3.551 4.823-5.976 10.079-8.58 15.281-4.843 9.681-9.161 19.671-11.002 30.072-.945 5.347-2.538 10.577-3.512 15.912-.75 4.115-.43 8.622-1.896 12.617-1.74 4.74-5.899 9.096-8.152 13.757-2.988 6.183-4.994 12.115-5.63 18.771-.624 6.544 1.113 12.311 1.879 18.727.443 3.717-.324 4.139-2.88 7.647-1.967 2.7-3.96 5.373-5.225 8.378-2.361 5.615-2.23 11.077 1.879 16.013 2.82 3.388 12.299 6.933 11.523-.618-.36-3.508-4.772-5.095-3.93-9.12.584-2.787 3.425-4.715 6.874-5.577 2.436-.608 3.636-.582 4.735 2.09.996 2.42-.325 7.706-.63 10.25-.123 1.023-.305 1.92-.428 2.867-.868 6.674-1.028 12.815-4.682 18.944-2.244 3.766-6.636 9.073-1.628 12.703 3.959 2.87 10.79 1.121 13.877-1.882 3.256 4.027 2.532 8.423 1.314 12.869-.756 2.76-2.824 6.802.431 9.033 4.408 3.021 11.603-1.738 14.908-4.14 1.91 4.268 3.703 19.827 11.235 10.552 2.198-2.705 5.858-5.344 6.555-8.534 1.156-5.29.326-10.858.804-16.202 2.404 6.997 4.038 9.787 5.51 16.97.884 4.321 1.231 18.82 10.174 16.91 6.88-1.47 2.48-10.524 1.601-14.215-1.683-7.07-2.496-10.063-4.122-17.14 2.533 4.626 4.746 9.371 7.18 14.034 2.39 4.58 13.078 14.027 16.205 10.05 3.127-3.978-4.496-9.645-6.23-14.46-3.609-10.024-7.98-20.006-9.017-30.508-.499-5.049.436-9.712.846-14.703.28-3.41-.141-6.902-.812-10.34z" id="c"/></defs><mask id="b" fill="#fff"><use href="#a"/></mask><g mask="url(&quot;#b&quot;)"><g transform="translate(15 14)"><mask id="d" fill="#fff"><use href="#c"/></mask><use class="CustomColor" fill="var(--avataaar-hair-color)" href="#c"/><path d="M85.718 185.073A73.225 73.225 0 0189 185h4v-18.389a56.224 56.224 0 01-26.789-26.99 37.04 37.04 0 001.95 4.888c5.756 11.833 13.257 22.412 16.327 35.08.435 1.798.869 3.633 1.23 5.484zm78.445 2.505A72.074 72.074 0 00145 185h-4v-18.389a56.238 56.238 0 0025.502-24.404c-.077 2.994-.01 5.972.373 8.849 1.07 8.044 4.001 15.31 2.64 23.58-.744 4.532-2.725 8.875-5.352 12.942z" opacity=".24" mask="url(&quot;#d&quot;)"/><path d="M49.36 108.248c-.124-2.422-1.98-10.537.329-11.939 2.53-1.537 2.002 7.707 2.028 8.654.044 1.537 1.211 13.135-.927 13.084-2.132-.051-1.347-8.219-1.43-9.799zm8.435 57.75c-.009 1.014-1.072.953-1.832.688-.937-.328-.363-2.484-.413-3.191-.13-1.86-1.023-7.338.34-8.873 2.726-3.069 1.916 9.948 1.905 11.376zm-25.674 13.163c1.93-.054.144-37.832-2.821-37.79-2.083.03 1.361 37.827 2.821 37.79zm2.232 19.355c-2.397 0-1.957 8.462-.545 9.139 2.14 1.025 3.227-9.139.545-9.139zm15.237 3.539c.021 1.058-1.179 1.074-1.98.744-.908-.376-.528-3.506-.563-4.2-.114-2.188-2.017-10.672-.286-12.231 1.974-1.778 2.017.173 2.548 1.498 1.564 3.903.197 10.032.28 14.189zm140.652-79.722c.11 1.463 1.069 11.018-.524 11.746-2.742 1.254-1.561-4.65-1.55-5.413.107-7.437-.969-14.812-1.787-22.21-.155-1.404-2.625-12.224-.816-13.12 2.707-1.342 2.303 2.245 2.458 3.41 1.129 8.468 1.628 17.078 2.22 25.587zm-3.219 33.254c-2.532-.502-3.858 8.094-2.702 9.016 1.917 1.53 5.35-8.49 2.702-9.016zm-.268 37.798c-1.139-.226-9.433 15.733-8.75 16.635 1.299 1.719 12.829-15.82 8.75-16.635zm-20.422 7.374c-1.782-.803-9.334 10.75-7.406 11.619 1.748.786 9.561-10.652 7.406-11.62zm42.092-43.312c-2.15 0-2.055 11.822-.4 12.568 1.711.77 2.942-12.568.4-12.568zM178.14 48.844c-.609-.87-7.175-8.62-2.472-7.513 2.291.539 5.448 7.352 6.481 9.41.594 1.183 3.985 6.46.392 6.086-.977-.101-3.59-6.82-4.401-7.983zm-23.092-15.488c-.847.381-.832.739.042 1.072.847-.38.832-.738-.042-1.072zm-84.43 8.13c-2.004 1.844-9.542 12.519-12.125 12.626-4.707.195 4.278-9.025 5.297-10.198.455-.527 2.486-3.092 3.722-3.723 1.261-.643 5.444-.859 3.107 1.295zM43.255 69.981c-2.183-.43-5.835 10.264-4.56 11.555 1.923 1.95 7.007-11.07 4.56-11.555zm24.939 119.011c.412 1.341 4.631 11.08 3.571 12.361-1.621 1.958-2.087-.817-2.617-1.967-1.178-2.555-4.238-8.846-3.746-11.536.477-2.608 2.375-.201 2.792 1.142zm-8.207 22.824c-2.295 0-2.03 9.802-.663 10.385 2.116.902 3.478-10.385.663-10.385zm161.805-8.37c.137.604 2.054 5.563-.663 4.845-1.562-.413-1.802-4.785-2.201-6.11-1.23-4.086-5.28-9.163-5.632-13.194-.34-3.897 1.84-2.412 3.515.889 2.236 4.407 3.913 8.87 4.981 13.57zm-19.702-.495c-2.132-.01-2.235 10.773-.902 11.402 1.864.878 3.621-11.402.902-11.402zm6.16-88.297c1.582-.412-3.41-13.325-5.177-13.183-2.695.217 2.776 13.803 5.178 13.183zm-26.815 56.093c-.847.38-.832.738.043 1.071.846-.38.832-.738-.043-1.071zm-24.218 55.24c.794 0 1.121-1.223-.051-1.25-.775.006-1.184 1.25.051 1.25zM58.684 170.63c.03-1.909-2.469-.51-2.453 1.101.032 3.214 2.4 1.746 2.453-1.101zm-6.165-47.746c-.804 0-1.134 1.236.05 1.266.785-.006 1.198-1.266-.05-1.266zm-19.132 62.51c-.078-1.941-1.7.043-1.61.046.288.007 1.67 1.417 1.61-.046zM37.6 84.063c-2.368 0-2.025 5.754-.514 6.123 2.52.616 2.865-6.123.514-6.123zm12.613 124.263c-2.286 0-2.44 7.814-.863 8.3 2.451.754 3.243-8.3.863-8.3zm-18.756 5.606c-.872.391-.858.76.042 1.103.873-.39.858-.758-.042-1.103zm169.999 3.35c-2.32 0-2.23 9.554-.805 10.2 1.99.902 3.488-10.2.805-10.2zm-23.51 8.88c-2.411-.482-3.674 7.405-2.55 8.29 1.852 1.459 5.025-7.796 2.55-8.29zm-20.48 7.29c-1.998 0-1.508 3.574-.355 4.106 1.994.92 2.583-4.107.354-4.107zM86.48 19.508c-1.672 0-12.16 4.744-8.24 6.15 2.396.859 12.497-6.15 8.24-6.15z" opacity=".3" fill="#FFF" mask="url(&quot;#d&quot;)"/></g></g></svg>