<svg width="280" height="280" xmlns="http://www.w3.org/2000/svg"><defs><path id="a" d="M0 0h264v280H0z"/><path d="M21 157.54V69.047c0-3.532.398-6.971 1.152-10.275C25.205 38.731 36.775 22.811 50 13c19.905-14.76 53.442-19.018 65.047-1.478C123.698 7.681 136.52 11.182 146 20c9.565 9.415 17.2 30.197 12.657 47.204.105 1.265.158 2.545.158 3.837v21.851A12.01 12.01 0 00149 83.166V83c-6.036-21.536-23.77-31.42-34.57-41.223C97.535 60.673 44.823 60.74 27 98v10c0 6.019 4.43 11.002 10.209 11.867 1.743 20.248 14.26 37.416 31.791 45.744V166c2.93 43.855-6.642 98.797-69 82 13.606-7.962 20.808-58.944 21-90.46zm96 8.071c17.53-8.328 30.048-25.496 31.791-45.744a12.01 12.01 0 0010.024-9.76v1.363a100 100 0 0010.963 45.524l26.949 52.707c6.963 13.619 4.919 29.473-3.936 40.768C189.966 213.289 158.903 184 121 184h-4v-18.389z" id="c"/></defs><mask id="b" fill="#fff"><use href="#a"/></mask><g mask="url(&quot;#b&quot;)"><use class="CustomColor" fill="#272C2E" href="#c" transform="translate(39 15)"/><path d="M66 113c17.823-32.335 70.535-32.393 87.43-48.792 10.778 8.49 28.462 15.059 34.533 33.66-6.071-21.444-23.755-31.308-34.533-41.09C136.535 75.672 83.823 75.74 66 113z" opacity=".16"/></g></svg>