<svg width="280" height="280" xmlns="http://www.w3.org/2000/svg"><defs><path id="a" d="M0 0h264v280H0z"/><path d="M148.86 69c.093 1.321.14 2.655.14 4v38c0 22.34-13.08 41.623-32 50.611v8.706c18.146 1.499 35.721 4.018 46 6.683 9.953-13.56 22.885-26.2 23-51 .085-18.985-27.676-95.572-40-111-8.138-10.188-28.695-13.55-53-14C68.695.55 48.923 6.509 41 16 30.319 28.795-.085 107.015 0 126c.116 24.8 13.048 37.44 23 51 10.279-2.665 27.854-5.184 46-6.683v-8.706C50.08 152.623 37 133.339 37 111V73c0-1.345.047-2.679.14-4h28.234l3.879-21.444L72.058 69h76.801z" id="c"/></defs><mask id="b" fill="#fff"><use href="#a"/></mask><g mask="url(&quot;#b&quot;)"><path d="M68.033 76.213c12.938-33.084 26.613-49.626 41.025-49.626.539 0 29.253-.238 48.055-.36C177.767 35.585 192 55.304 192 78.115V93h-82.942l-2.805-23.18-3.88 23.18H68V78.115c0-.637.011-1.27.033-1.902z" opacity=".16"/><use class="CustomColor" fill="var(--avataaar-hair-color)" href="#c" transform="translate(39 19)"/></g></svg>