<svg width="280" height="280" xmlns="http://www.w3.org/2000/svg"><defs><path id="a" d="M0 0h264v280H0z"/><path d="M48.725 89.219A12 12 0 0042 100v13c0 6.019 4.43 11.002 10.209 11.867 1.743 20.248 14.26 37.416 31.791 45.744V189h-4c-1.586 0-3.16.051-4.721.152a72.113 72.113 0 01-13.689-9.103A48.013 48.013 0 0148 182c-26.51 0-48-21.49-48-48 0-14.41 6.349-27.335 16.402-36.134A43.802 43.802 0 018 72c0-21.84 15.911-39.962 36.774-43.41C51.019 11.89 67.12 0 86 0a43.798 43.798 0 0122 5.886A43.798 43.798 0 01130 0c18.88 0 34.981 11.89 41.226 28.59C192.09 32.039 208 50.16 208 72a43.802 43.802 0 01-8.402 25.866C209.65 106.665 216 119.591 216 134c0 26.51-21.49 48-48 48-4.72 0-9.281-.681-13.59-1.951a72.113 72.113 0 01-13.689 9.103A73.084 73.084 0 00136 189h-4v-18.389c17.53-8.328 30.048-25.496 31.791-45.744C169.57 124.002 174 119.02 174 113v-13a11.99 11.99 0 00-5.476-10.073 24.329 24.329 0 01-3.235-1.47c-.42-.12-.85-.218-1.289-.291v-.453c-8.68-5.303-17.235-16.538-22.55-30.914C131.312 58.835 119.547 60 107 60c-11.961 0-23.212-1.059-33.02-2.921C68.756 71.064 60.465 82.043 52 87.423v.743a11.912 11.912 0 00-3.275 1.053z" id="c"/></defs><mask id="b" fill="#fff"><use href="#a"/></mask><g mask="url(&quot;#b&quot;)"><path d="M104.985 27.764C113.013 26.627 121.796 26 131 26c10.358 0 20.183.794 29 2.216C182.451 38.75 198 61.56 198 88v17.044c-11.538-.371-25.169-14.28-32.55-34.245C155.312 72.835 143.547 74 131 74c-11.961 0-23.212-1.059-33.02-2.921-7.304 19.548-20.597 33.223-31.98 33.943V88c0-26.825 16.004-49.913 38.985-60.236z" opacity=".16"/><use class="CustomColor" fill="#314756" href="#c" transform="translate(24 10)"/></g></svg>