<svg width="280" height="280" xmlns="http://www.w3.org/2000/svg"><defs><path id="a" d="M0 0h264v280H0z"/><path d="M162.831 71.618c.112 1.446.169 2.907.169 4.382v38c0 22.34-13.08 41.623-32 50.611V183h4c1.524 0 2.038.047 3.539.14-14.913 27.356-18.715 50.434-1.067 64.403 1.698 1.203 2.924 1.786 3.135 1.885 2.373 1.118 4.837 2.34 7.467 2.955 4.623 1.08 9.933-.373 14.557-.953 2.112-.266 4.217-.43 6.346-.436 2.565-.009 5.211.084 7.142 1.697 1.884 1.574 1.644 7.198-3.875 9.833 4.1 1.855 9.012-2.453 10.688-5.177 1.466-2.385 2.594-4.968 3.214-7.605.772-3.283.822-6.725.218-10.014-1.258-6.848-4.176-13.432-6.163-20.122-.732-2.466-1.686-5.165-2.102-7.69-.113-.684-.247-3.215-.141-3.744.078-.393.059-.797 1.415-1.176 3.916-1.096 8.007-2.933 10.852-5.52 3.365-3.058 5.119-7.03 6.533-10.979 2.24-6.252 3.523-12.947 4.113-19.44.122-1.349.191-2.695.215-4.047.015-.817-.085-1.747.008-2.565.153-1.34-.054-.987 1.248-1.874 4.257-2.9 7.58-7.122 9.71-11.37 3.346-6.672 3.782-13.708 1.066-20.467-2.253-5.607-5.827-11.235-11.392-14.846-2.137-1.386-4.392-2.643-6.61-3.93-1.21-.7-4.048-1.615-4.906-2.517-.6-.63.355-3.792.476-4.858.528-4.648-.08-9.157-1.165-13.696-2.394-10.008-12.033-26.149-15.903-35.662-3.325-8.172-8.136-55.3-65.031-55.026C51.69.473 41.419 50.438 33.716 59.774c-8.365 10.138-16.809 29.402-11.113 47.262-5.504 6.922-18.058 17.008-21.218 27.09-1.982 6.325-1.897 13.37.644 19.507 1.437 3.471 3.496 6.618 5.911 9.64 2.117 2.646 4.468 5.15 6.518 7.837 1.237 1.622 1.568 2.02 1.102 4.018-.92 3.94-2.819 7.725-4.466 11.475-2.552 5.81-4.697 11.22-5.014 17.413-.302 5.896 1.324 22.673 18.261 32.56a62.778 62.778 0 006.042 3.11c-1.09-3.396.146-15.524 2.343-20.032.56 1.55 1.511 3.043 2.536 4.398 1.6 2.115 5.374 7.409 10.147 7.655-1.937-2.984-4.02-4.998-4.624-8.598 3.977 1.96 9.634 3.747 14.262 3.582 3.404-.12 8.424-1.82 10.953-3.943-8.372 1.327-16.321-1.433-19.518-7.329-.667-1.23-1.174-2.52-1.468-3.86-.417-1.9-1.076-4.944-.191-6.697.215-.426.566-.86.984-1.29a30.968 30.968 0 01-.197-.235c5.694-4.787 12.84-12.404 16.665-17.97.07-.122.141-.244.21-.367h.04l.085-.126A72.215 72.215 0 0179 183h4v-18.389C64.08 155.623 51 136.339 51 114V76c0-2.463.159-4.888.467-7.267 3.942-1.263 7.898-2.455 11.932-3.528 4.456-1.186 14.399-3.114 18.29-4.01l2.736-2.98 1.063 1.955c2.158-.166 14.078-1.957 14.078-1.957l1.33-3.223c1.717 1.763 2.939 2.679 2.939 2.679 2.556-.209 13.653-.458 16.285-.426 0 0 7.34.258 9.12.328l1.668-.638.548 1.077c1.454.591 10.243 3.59 11.978 4.128l2.547-.906c1.12 2.694 3.94 2.354 6.276 4.481 2.503 2.279 7.226 4.024 10.574 5.905z" id="c"/></defs><mask id="b" fill="#fff"><use href="#a"/></mask><g mask="url(&quot;#b&quot;)"><path d="M99.9 42.465c-9.798 6.007-18.514 13.862-24.313 22.895-2.762 4.303-5.034 8.84-7.15 13.398a136.14 136.14 0 00-2.961 6.931c-.587 1.47-1.487 3.056-.64 4.599.517-.302.713-.194.388.347 2.692.734 6.434-1.335 8.767-2.099 4.763-1.56 9.53-3.033 14.408-4.331 4.456-1.186 14.399-3.114 18.29-4.01l2.736-2.98 1.063 1.955c2.158-.166 14.078-1.957 14.078-1.957l1.33-3.223c1.717 1.763 2.939 2.679 2.939 2.679 2.556-.209 13.653-.458 16.285-.426 0 0 7.34.258 9.12.328l1.668-.638.548 1.077c1.454.591 10.243 3.59 11.978 4.128l2.547-.906c1.12 2.694 3.94 2.354 6.276 4.481 3.092 2.814 9.569 4.816 12.66 7.263 1.108.876 2.143 1.792 3.183 2.726 1.156 1.037.985 1.188 1.36 2.378.113.356 1.256 2.199 1.743 2.35 1.733.536-10.154-30.486-13.417-34.453-3.368-4.094-25.211-31.654-54.174-30.752" opacity=".16"/><g fill="none" transform="translate(25 16)"><mask id="d" fill="#fff"><use href="#c"/></mask><use class="CustomColor" fill="#361A0A" href="#c"/><path d="M62.68 184.462c7.075-9.707-.531-36.675-6.552-46.661 16.837-7.663 50.086-6.248 99.746 4.247-4.795 8.852-6.75 16.756-5.868 23.71-4.537 5.575-8.286 11.37-11.246 17.383l-34.871 8.606c-22.036 2.653-35.773.225-41.21-7.285z" opacity=".24" fill="#000" mask="url(&quot;#d&quot;)"/></g><path d="M78.04 170.094c-.059-.201-.205-.427-.405-.665.136.221.272.442.405.665zm-22.63-49.719a88.6 88.6 0 004.456 18.002c2.062 5.721 4.42 11.46 7.813 16.69 3.161 4.876 6.924 9.425 9.956 14.362-.797-.948-2.472-2.1-3.114-2.778a49.966 49.966 0 01-2.984-3.458c-1.923-2.443-3.637-5-5.294-7.583-3.252-5.073-5.69-10.576-7.803-16.08-4.15-10.807-8.313-23.913-4.666-35.33-.282.735.459 2.488.575 3.297.204 1.414.386 2.837.478 4.26.185 2.883.184 5.749.583 8.618zm12.445 44.666c-1.358-1.731-3.881-3.097-5.442-4.762-1.415-1.51-2.511-3.2-3.506-4.94-2.255-3.94-3.737-7.964-4.217-12.37.11.523.918 1.427 1.173 1.856a85.236 85.236 0 011.788 3.124c1.097 2.04 2.013 4.15 3.122 6.187 2.038 3.74 4.63 7.36 7.082 10.905zm4.677 18.458c1.115 1.962 2.04 3.966 2.625 6.102a42.27 42.27 0 01.77 3.413c.07.369.082 1.696.258 2.27-2.215-4.291-3.905-8.835-6.543-12.942-2.604-4.054-5.947-7.781-9.446-11.281-3.695-3.695-7.41-7.182-9.392-11.847-1.725-4.06-2.391-8.218-1.99-12.556.002 1.911 1.757 4.622 2.363 6.469.83 2.527 1.489 5.105 2.737 7.507 2.126 4.089 5.959 7.243 9.165 10.688 3.553 3.816 6.946 7.762 9.453 12.177zm-14.303-9.32a21.991 21.991 0 012.806 3.275c.898 1.285 1.556 2.636 2.145 4.05.507 1.217.73 3.482 1.527 4.498-2.578-3.146-5.233-6.117-7.011-9.69-.607-1.222-1.548-3.023-2.243-4.495.231.593 2.253 1.86 2.776 2.362zm-10.326 6.349c2.838 4.25 6.548 8.081 8.974 12.528 2.83 5.187 4.075 10.807 4.326 16.54.119 2.711.112 5.465-.253 8.168-.196 1.448-.51 2.886-.869 4.312-.136.54-.84 1.926-.977 2.77-.29-10.54 1.454-21.082-4.027-30.903-2.596-4.65-6.586-8.616-9.679-13.018-2.782-3.959-5.498-7.841-7.713-12.074 1.356 1.716 3.8 3.065 5.316 4.769 1.899 2.134 3.348 4.58 4.902 6.908zm11.2 44.319c-.032.204-.033.377.014.5l-.013-.5zm-9.543-22.353c.001.496.816 1.518 1.04 2.035.52 1.209.946 2.478 1.157 3.76.418 2.529-.13 5.14-1.067 7.561-1.9 4.907-4.874 9.253-8.613 13.3 1.335-1.748 1.867-4.589 2.806-6.538.965-2 2-3.97 2.85-6.011 1.92-4.605 1.75-9.311 1.827-14.107zM40.917 221.2c.401-.548.193-3.183.405-3.872.392-1.273 1.07-2.502 1.849-3.635-.416.699.198 2.466-.005 3.373-.332 1.489-1.17 2.932-2.249 4.134zm57.69-178.453a.934.934 0 00-.239.297l.24-.297zm-14.76 21.584c1.42-1.246 2.177-4.19 3.156-5.78 1.125-1.825 2.418-3.579 3.645-5.356 2.432-3.524 4.726-6.984 7.72-10.19-.622.934-1.173 3.768-1.514 4.513a34.612 34.612 0 01-3.221 5.605c-2.86 4.044-5.93 7.803-9.786 11.208zm-.535-10.21c.75-1.327 1.894-2.448 3.18-3.414-.573.503-.831 2.575-1.225 3.275-.795 1.412-1.953 2.63-3.196 3.772.664-.582.772-2.803 1.24-3.633zm119.194 98.006l-.041.31c-.002-1.525-.68-3.2-.76-4.769-.113-2.19.202-4.315 1.082-6.392 1.74-4.101 5.003-7.207 9.164-9.638-1.145.674-2.267 3.213-3.001 4.268-1.103 1.586-2.282 3.187-3.214 4.85-1.943 3.469-2.506 7.618-3.23 11.371zm-1.508-21.646a22.94 22.94 0 01-.989 3.626c-.474 1.279-1.093 2.523-1.783 3.728-.43.75-1.98 2.327-1.978 3.157-.083-4.898 1.728-9.335 5.172-13.257-.378.657-.283 2.03-.422 2.746zm-.801 35.238c3.656-.517 7.105 1.261 9.421 3.551 1.238 1.224 2.338 2.63 3.065 4.133.547 1.13.546 2.983 1.28 3.92-1.797-2.419-4.076-4.373-6.324-6.464-1.564-1.455-4.688-5.181-7.442-5.14zm-.778 10.377c-.192-.065-1.934-.558-2.337-.32.597-.267 1.33-.592 1.987-.679 4.284-.569 9.492 3.141 10.067 6.721-.478-1.226-3.025-2.24-4.176-2.85-1.823-.967-3.564-2.137-5.541-2.872zm1.809 7.811c.742.182 2.32 1.176 3.047 1.165-2.929.07-5.572-.255-8.391-.914.152.041 1.759-.456 1.811-.463 1.215-.172 2.357-.076 3.533.212zm-11.345 13.857c4.288-.242 9.336.384 13.431 1.417a22.338 22.338 0 015.692 2.295c1.414.814 3.93 1.932 4.876 3.137-3.74-6.452-11.85-9.803-20.16-8.14-1.107.222-2.808 1.276-3.84 1.291zm-.96 12.433c2.688-.965 5.661-1.894 8.583-2.029 2.771-.127 5.845.29 8.41 1.173-.883-.24-2.993.332-3.92.437-1.297.147-2.596.299-3.896.418a51.749 51.749 0 01-4.801.222c-1.14-.002-3.32-.54-4.376-.221zM178.46 227.41c.253 3.972 2.552 7.434 5.931 10.08 3.583 2.805 8.379 4.082 10.98 7.829 1.267 1.825 1.943 3.95 1.834 6.098-.056 1.106-.334 2.218-.635 3.294-.197.708-.902 1.868-.901 2.559.031-3.887.084-8.412-2.636-11.673-2.731-3.274-7.493-4.427-10.829-7.115-3.278-2.642-5.765-6.094-6.325-9.985-.452-3.144-.23-8.626 3.03-10.76-.662.39-.53 2.374-.547 2.931a73.85 73.85 0 00.098 6.742zm-2.453 15.262c.396.52 2.57 1.151 3.208 1.51 1.456.817 2.865 1.746 4.02 2.877 2.317 2.266 3.81 5.445 3.918 8.494 0-.72-1.646-2.457-2.109-3.073-.768-1.022-1.635-1.969-2.518-2.917-2.154-2.31-4.39-4.564-6.52-6.891zm52.162-88.882c1.204 1.05 2.01 2.357 2.675 3.709 1.53 3.12 1.815 6.717.589 10 .203-.704-.401-2.184-.571-2.898-.373-1.563-.955-3.04-1.563-4.542-1.18-2.916-2.134-5.648-4.184-8.202.53.668 2.328 1.3 3.054 1.933zM170.51 41.983c0 .332.917 1.293 1.123 1.654.517.902.924 1.849 1.064 2.855.158 1.142-.035 2.259-.381 3.369-.206.66-1.184 1.934-1.184 2.528-.16-3.498-.933-6.86-.622-10.406zm7.637 6.822c.165 1.243-.24 2.644-.964 3.742.132-.31-.454-2.383-.473-2.762-.059-1.173.07-2.38.146-3.552.001.64 1.183 1.763 1.291 2.572zm-60.77 1.568a34.964 34.964 0 01-4.15 4.243c-1.023.89-2.984 1.89-3.764 2.91 3.501-5.711 7.546-10.638 12.302-15.63-.716.92-.903 2.916-1.428 3.993-.774 1.587-1.81 3.076-2.96 4.484zm5.898 2.479c.57-.336 1.104-1.993 1.538-2.55a16.914 16.914 0 012.578-2.63c-.205.22-.602 2.044-.825 2.402-.723 1.16-2 2.107-3.29 2.778z" opacity=".6" fill="#FFF"/></g></svg>