<svg width="280" height="280" xmlns="http://www.w3.org/2000/svg"><defs><path id="a" d="M0 0h264v280H0z"/><path d="M8.461 88.694C8.161 89.744 8 90.854 8 92v13c0 6.019 4.43 11.002 10.209 11.867 1.743 20.248 14.26 37.416 31.791 45.744V181h-4c-15.619 0-30.076 4.973-41.875 13.423A73.888 73.888 0 010 170V74C0 33.13 33.13 0 74 0s74 33.13 74 74v96a73.888 73.888 0 01-4.125 24.423C132.076 185.973 117.619 181 102 181h-4v-18.389c17.53-8.328 30.048-25.496 31.791-45.744C135.57 116.002 140 111.02 140 105V92c0-1.69-.349-3.297-.979-4.755-12.956-2.188-27.542-7.476-41.872-15.75-12.132-7.004-22.503-15.237-30.48-23.743 3.427 7.908 7.577 14.836 12.45 20.783-12.676-5.523-21.306-14.403-25.892-26.639a100.37 100.37 0 01-1.18 2.762c-9.84 22.1-26.456 38.024-43.586 44.036z" id="c"/></defs><mask id="b" fill="#fff"><use href="#a"/></mask><g mask="url(&quot;#b&quot;)"><use class="CustomColor" fill="var(--avataaar-hair-color)" href="#c" transform="translate(58 18)"/><path d="M58 102.419v6.419c19.945-3.088 40.59-20.448 52.046-46.18.41-.92.803-1.84 1.18-2.762 4.006 10.686 11.095 18.812 21.27 24.378a78.41 78.41 0 004.622 6.261c-12.675-5.523-21.305-14.403-25.891-26.639-.378.922-.771 1.843-1.18 2.762C98.59 92.39 77.944 109.75 58 112.838v-10.419zm148-1.279v9.14c-14.953-.867-33.099-6.535-50.851-16.785-10.273-5.93-19.283-12.743-26.646-19.855a98.48 98.48 0 01-3.833-7.888c7.976 8.506 18.347 16.74 30.479 23.743 17.752 10.25 35.898 15.918 50.851 16.786v-5.14z" opacity=".16"/></g></svg>