<svg width="280" height="280" xmlns="http://www.w3.org/2000/svg"><defs><path id="a" d="M0 0h264v280H0z"/><path d="M180.666 104.495A11.949 11.949 0 01182 110v13c0 6.019-4.43 11.002-10.209 11.867-1.743 20.248-14.26 37.416-31.791 45.744v9.443c3.832 1.896 8.059 2.946 12.5 2.946 7.621 0 14.61-3.093 20.059-8.242 1.461.16 2.943.242 4.441.242 18.39 0 34.26-12.316 41.622-30.116C224.9 149.814 229 141.454 229 132a32.06 32.06 0 00-.426-5.223C230.786 120.339 232 113.33 232 106c0-12.866-3.739-24.736-10.046-34.275.03-.57.046-1.146.046-1.725 0-10.957-5.507-20.443-13.53-25.043-7.31-17.588-22.73-29.966-40.773-30.9C163.274 9.075 157.201 6 150.5 6c-.95 0-1.89.062-2.812.182C137.91 2.196 127.211 0 116 0c-11.211 0-21.91 2.196-31.688 6.182C83.389 6.062 82.45 6 81.5 6c-6.701 0-12.774 3.075-17.197 8.057-18.044.934-33.463 13.312-40.774 30.9C15.507 49.557 10 59.043 10 70c0 .58.015 1.155.046 1.725C3.739 81.265 0 93.135 0 106c0 7.331 1.214 14.34 3.426 20.777A32.06 32.06 0 003 132c0 9.454 4.1 17.814 10.378 22.884C20.74 172.684 36.61 185 55 185c1.498 0 2.98-.082 4.441-.242C64.889 189.907 71.879 193 79.5 193c4.441 0 8.668-1.05 12.5-2.946v-9.443c-17.53-8.328-30.048-25.496-31.791-45.744C54.43 134.002 50 129.02 50 123v-13c0-1.983.481-3.854 1.333-5.502 2.702-.802 5.677-3.053 8.658-6.33l.009-.002v-.009c6.866-7.556 13.755-20.555 17.37-33.822 11.116 1.737 24.535 2.752 38.984 2.752 14.159 0 27.33-.975 38.314-2.649 3.62 13.226 10.486 26.172 17.332 33.71v.018l.02.003c2.976 3.272 5.947 5.522 8.646 6.326z" id="c"/></defs><mask id="b" fill="#fff"><use href="#a"/></mask><g mask="url(&quot;#b&quot;)"><path d="M66 109.778c9.038-1.06 21.922-20.447 27.37-40.443 11.116 1.737 24.535 2.752 38.984 2.752 14.159 0 27.33-.975 38.314-2.649 5.462 19.953 18.31 39.269 27.332 40.339V89c0-22.884-11.647-43.048-29.336-54.887-.528 2.482-.88 5.222-1.04 8.184-10.34-1.404-22.396-2.21-35.27-2.21-13.164 0-25.472.842-35.964 2.306-.158-3-.512-5.775-1.047-8.286C77.65 45.947 66 66.113 66 89v20.778z" opacity=".16"/><use class="CustomColor" fill="#314756" href="#c" transform="translate(16)"/></g></svg>