<svg width="280" height="280" xmlns="http://www.w3.org/2000/svg"><defs><path id="a" d="M0 0h264v280H0z"/><path d="M59 102.34V182a8 8 0 008 8h42v-9.389c-17.53-8.328-30.048-25.496-31.791-45.744C71.43 134.002 67 129.02 67 123v-13c0-3.49 1.49-6.633 3.87-8.826 11.539-2.619 24.1-7.536 36.472-14.679 12.131-7.004 22.502-15.237 30.479-23.743-3.427 7.908-7.576 14.836-12.449 20.783 12.675-5.523 21.306-14.403 25.892-26.639.377.922.77 1.843 1.18 2.762 10.256 23.035 27.874 39.36 45.762 44.745.513 2.11.794 4.08.794 5.597v13c0 6.019-4.43 11.002-10.209 11.867-1.743 20.248-14.26 37.416-31.791 45.744V190h18c17.673 0 32-14.327 32-32v-54.125c0-.067-.01-.154-.028-.26-.144-12.261-.348-19.391-.612-21.39C201.577 45.977 170.556 18 133 18c-36.085 0-66.137 25.828-73 60-5.523 0-10 5.596-10 12.5 0 4.55 1.695 8.643 4.853 10.773.905.61 2.47.925 4.147 1.067z" id="c"/></defs><mask id="b" fill="#fff"><use href="#a"/></mask><g mask="url(&quot;#b&quot;)"><use class="CustomColor" fill="var(--avataaar-hair-color)" href="#c" transform="translate(-1)"/><path d="M60.899 102.775c13.812-1.76 29.78-7.237 45.443-16.28 12.131-7.004 22.502-15.237 30.479-23.743-3.427 7.908-7.576 14.836-12.449 20.783 12.675-5.523 21.306-14.403 25.892-26.639.377.922.77 1.843 1.18 2.762 11.938 26.813 33.852 44.536 54.556 46.493V92c0-40.87-33.13-74-74-74-36.085 0-66.137 25.828-72.679 60.006A8.15 8.15 0 0059 78c-5.523 0-10 5.596-10 12.5 0 6.482 3.947 11.811 9 12.438v.155c.316-.03.634-.06.953-.093a8.172 8.172 0 001.946-.225z" fill="#FFF" opacity=".16"/></g></svg>