<svg width="280" height="280" xmlns="http://www.w3.org/2000/svg"><defs><path id="a" d="M0 0h264v280H0z"/><path d="M156 180.611c17.53-8.328 30.048-25.496 31.791-45.744C193.57 134.002 198 129.02 198 123v-13c0-5.946-4.325-10.882-10-11.834V92c0-30.928-25.072-56-56-56S76 61.072 76 92v6.166c-5.675.952-10 5.888-10 11.834v13c0 6.019 4.43 11.002 10.209 11.867 1.743 20.248 14.26 37.416 31.791 45.744V199h-4c-39.765 0-72 32.235-72 72v9h200v-9c0-39.765-32.235-72-72-72h-4v-18.389zM0 0h264v280H0V0z" id="c"/><rect id="e" x="0" y="0" width="112" height="150" rx="56"/></defs><mask id="b" fill="#fff"><use href="#a"/></mask><g mask="url(&quot;#b&quot;)"><g fill="none"><mask id="d" fill="#fff"><use href="#c"/></mask><path d="M116.18 40H146c25.405 0 46 20.595 46 46v68.109c0 26.541 18.759 50.24 30.61 71.943 11.851 21.702-7.355 42.19-26.84 50.717A38.509 38.509 0 01180.332 280h-45.068c-56.352 0-65.046-63.69-67.566-133.496l2.52-62.36C71.213 59.48 91.497 40 116.179 40z" class="CustomColor" fill="#CCB55A" mask="url(&quot;#d&quot;)"/></g><g fill="none" transform="translate(76 36)"><mask id="f" fill="#fff"><use href="#e"/></mask><path d="M98.801 19.94C107.027 29.484 112 41.91 112 55.5v10-4c0-15.74-6.672-29.92-17.342-39.87-30.738 11.047-56.644 11.173-77.717.378C6.505 31.937 0 45.958 0 61.5v4-10c0-13.607 4.987-26.05 13.233-35.6-3.834-3.04-4.974-11.713 6.234-15.023 11.845-3.499 9.84-18.079 27.99-20.803C65.61-18.65 63.972-11.375 81.03-12.35c17.057-.974 22.607-16.763 25.82-12.724 12.74 16.01 9.572 34.414-8.048 45.014z" opacity=".16" fill="#000" mask="url(&quot;#f&quot;)"/></g><path d="M89.878 52.361c22.15 12.866 49.939 12.866 83.366 0 14.53-7.772 25.087-23.319 8.707-43.398-2.169-2.658-10.707 6.713-27.6 7.687-16.893.975-13.271-3.3-31.248-.576-17.977 2.724-15.991 17.304-27.722 20.803-11.73 3.498-9.803 12.987-5.503 15.484z" class="CustomColor" fill="#E0C863"/></g></svg>