<svg width="280" height="280" xmlns="http://www.w3.org/2000/svg"><defs><path id="a" d="M0 0h264v280H0z"/><path d="M82.018 24.378c-7.032-.693-15.36-1.127-23.705-1.132C39.008 23.232 19.618 25.483 16 28 6.296 35.248 2.537 62.446 3 64c-.327 1.223-1.653 1.488-2 0C.28 53.702 1 1.726 58 1c57-.726 57.72 52.702 57 63-.347 1.488-1.673 1.223-2 0 .463-1.554-3.296-28.752-13-36-1.76-1.224-7.247-2.39-14.641-3.261L89 16l-6.982 8.378z" id="c"/></defs><mask id="b" fill="#fff"><use href="#a"/></mask><g mask="url(&quot;#b&quot;)"><use class="CustomColor" fill="var(--avataaar-hair-color)" href="#c" transform="translate(74 34)"/></g></svg>