<svg width="280" height="280" xmlns="http://www.w3.org/2000/svg"><defs><path id="a" d="M0 0h264v280H0z"/><path d="M175.126 166.898c.715 2.24 1.749 4.333 3.43 5.788 1.62 1.404 4.512 1.06 6.543 1.117 1.672.048 3.346.053 5.016-.02.839-.036 1.213 1.015.534 1.499-.13.092-.26.18-.39.262a39.362 39.362 0 01-3.25 1.812c-2.524 1.258-5.188 2.244-7.982 2.734-1.916.337-3.816.4-5.654.177a9.828 9.828 0 001.699 1.94c1.73 1.501 4.816 1.133 6.983 1.194 1.784.052 3.57.057 5.353-.02.895-.039 1.295 1.084.57 1.601a8.08 8.08 0 01-.416.28 41.99 41.99 0 01-3.469 1.937c-2.693 1.345-5.536 2.398-8.518 2.922-5.5.966-10.87-.177-15.194-3.708a24.905 24.905 0 01-3.381-3.36v-2.442a56.187 56.187 0 0018.126-13.713zm-93.81-15.304a140.419 140.419 0 01-2.31 4.597c-4.795 9.11-10.764 20.602-22.507 21.405-1.088.075-1.519 1.347-.67 1.992 11.12 8.453 36.432 13.6 45.445 11.982a54.359 54.359 0 007.726-1.96v-8.999a56.208 56.208 0 01-27.685-29.017zm114.59-82.914c.175 5.507-.617 11.227-1.721 16.616-.995 4.852-4.315 8.675-5.348 13.433-4.027-13.68-19.404-18.245-28.595-27.574 1.997 3.793 5.049 6.948 7.052 10.678-9.247-5.665-18.206-13.88-22.032-24.295-.707 5.398-2.716 10.39-6.108 14.666-3.011 3.796-7.582 7.87-12.295 9.34 2.428-5.507 4.502-11.217 6.407-16.925-2.016 2.617-8.697 13.734-10.375 16.49-1.656 2.72-3.513 5.317-5.507 7.803-.933 1.163-1.929 2.287-2.93 3.391a67.183 67.183 0 01-1.788 1.895c-.215.219-1.842 2.01-.912.806-2.216 2.802-5.478 4.979-8.31 7.109-2.853 2.144-5.96 3.968-9.192 5.476-7.159 3.343-14.512 4.56-22.32 3.163 1.196.299 3.721-.846 4.957-1.182 1.809-.492 3.474-1.117 5.113-2.024a53.85 53.85 0 009.176-6.418c-2.707 1.152-4.905 3.334-7.664 4.543-2.287 1.003-4.547 1.526-7.032 1.766-5.462.529-11.995-.72-16.721-3.587-5.492-3.333-8.542-9.051-9.99-15.137-1.68-7.067-.635-15.04 3.328-21.074.135 2.143 4.436 3.064 7.916 2.527 9.658-1.49 15.403-38.048 40.427-44.566 19.961-5.2 34.21 3.874 35.42 4.657 1.437.928 1.988.54 3.621.148 6.346-1.52 13.258-2.209 19.705-.927 6.34 1.262 12.418 4.546 17.559 8.378 9.527 7.101 17.762 18.582 18.159 30.824z" id="c"/></defs><mask id="b" fill="#fff"><use href="#a"/></mask><g mask="url(&quot;#b&quot;)"><g transform="translate(-1)"><use class="CustomColor" fill="var(--avataaar-hair-color)" href="#c"/><path d="M175.126 166.898c.715 2.24 1.749 4.333 3.43 5.788 1.62 1.404 4.512 1.06 6.543 1.117 1.672.048 3.346.053 5.016-.02.839-.036 1.213 1.015.534 1.499-.13.092-.26.18-.39.262a39.362 39.362 0 01-3.25 1.812c-2.524 1.258-5.188 2.244-7.982 2.734-1.916.337-3.816.4-5.654.177a9.828 9.828 0 001.699 1.94c1.73 1.501 4.816 1.133 6.983 1.194 1.784.052 3.57.057 5.353-.02.895-.039 1.295 1.084.57 1.601a8.08 8.08 0 01-.416.28 41.99 41.99 0 01-3.469 1.937c-2.693 1.345-5.536 2.398-8.518 2.922-5.5.966-10.87-.177-15.194-3.708a24.905 24.905 0 01-3.381-3.36v-2.442a56.187 56.187 0 0018.126-13.713zm-93.81-15.304a140.419 140.419 0 01-2.31 4.597c-4.795 9.11-10.764 20.602-22.507 21.405-1.088.075-1.519 1.347-.67 1.992 11.12 8.453 36.432 13.6 45.445 11.982a54.359 54.359 0 007.726-1.96v-8.999a56.208 56.208 0 01-27.685-29.017z" opacity=".16"/></g></g></svg>