<svg width="280" height="280" xmlns="http://www.w3.org/2000/svg"><defs><path id="a" d="M0 0h264v280H0z"/><path d="M153.503 98.874C157.9 100.654 161 104.965 161 110v13c0 5.288-3.42 9.776-8.168 11.375a55.713 55.713 0 01-11.076 29.29c.209.807.41 1.625.556 2.503.55 3.327-.12 6.093 1.645 9.093.457.78 1.183 1.247 1.522 2.144.533 1.415-.232 4.594 1.95 4.595 3.106 0 1.374-5.966.596-7.384-1.525-2.772-2.462-3.45-2.383-7.044 1.745 1.16 7.53 3.376 9.448 2.316 4.432-2.448-6.662-4.936-7.438-5.453 1.704-1.666 3.656-2.55 5.197-4.746 1.26-1.793 2.406-4.397 4.55-4.501 1.186-.058 4.657 2.884 5.71.866.964-1.85-1.115-2.122-1.928-2.777-1.502-1.21-1.84-.006-1.474-2.134 1.085 1.165 2.789.429 3.244-1.015.49-1.559-1.127-2.024-1.097-3.014-.012.387.834-5.115.7-4.938.86-1.135 3.908-.784 5.413-.62 2.296.248 2.164.317 3.255 2.436.882 1.715 3.198 5.178 3.707.641.121-1.085-.869-3.404-1.45-4.338-.627-1.007-2.517-1.643-2.912-2.427-.944-1.87 2.165-6.034 1.639-8.854 1.093.418 3.857 6.927 5.198 1.599.707-2.8-6.505-8.945-3.514-9.894 2.289-.726 4.612 2.225 5.25 4.044.473 1.348.26 4.238 1.068 5.353 3.036 4.203 3.41-2.74 3.157-4.572-.559-4.026-1.984-6.988-5.623-8.51 1.295-1.607-.345-2.887-1.275-3.893 1.528-1.657 11.437.104 9.208-4.327-.538-1.072-2.481-1.262-3.467-1.655-2.49-.992-4.985-3.01-6.257-5.562 1.841-.46 7.28.798 6.565-2.996-.563-2.982-5.403-2.067-7.278-1.61 1.692-1.016 4.973-.174 5.434-2.941.531-3.183-3.288-3.076-5.08-2.402-.422-3.358 5.53-5.83 7.213-8.4.568-.867 1.47-1.164.746-2.633-1.306-2.643-4.68 1.086-5.792 2.09.876-1.628 3.32-8.403 2.95-10.122-.546-2.526-2.353-2.615-3.79-.568-.93 1.33-1.19 4.703-1.68 6.427-2.04-1.537-2.143.246-2.248-2.191-.068-1.58 2.002-4.701 2.532-6.248.456-1.329 1.668-3.76.943-5.046-1.776-3.143-3.473 1.172-3.94 2.652-.789-3.411 2.214-6.057 3.103-9.431.541-2.048 1.976-7.578-.51-8.561-3.394-1.341-2.2 4.956-2.678 7-.365 1.559-.922 4.077-2.139 4.845-.176.111-2.82.343-2.948.193-1.734-2.021 3.038-6.447 3.284-8.351.223-1.73-.44-2.825-2.061-2.929-.81-.051-2.12 1.2-2.495 1.119-1.48-.322.447-7.089.587-8.967.15-2.003-.094-7.172-3.483-4.785.227-2.697.364-5.236.734-7.891.195-1.4 1.398-2.645-.374-3.767-2.156-1.365-3.35 1.492-3.842 3.168-.846 2.885.9 7.375-3.158 7.466-4.665.106-1.444-4.73-1.215-7.868.128-1.74-1.012-6.421-3.262-3.263-.896 1.259-.587 5.694-1.084 7.183-1.106-.493.733-4.515-.23-5.564-2.06-2.247-3.788 1.026-5.099 1.692-.086-1.445-.187-2.891-.248-4.338-.093-2.2 1.255-6.83-.113-8.347-2.337-2.59-3.823.431-4.506 2.523-.613 1.884-.697 3.744-3.233 4 .208-2.717-2.258-8.436-1.035-10.727.553-1.035 1.679-.301 2.179-1.46.821-1.902-.524-2.71-1.986-2.771-6.792-.286-1.562 9.134-3.969 11.491-1.099-1.04.072-2.113-1.065-3.596-1.223-1.595-3.173-1.46-4.918-.738-.056-1.613 2.364-12.92-3.08-7.817-1.352 1.271-.974 3.393-1.693 4.886-.696 1.445-2.39 3.598-3.341 4.771-.51-2.067.272-4.63.82-6.666.38-1.415 2.931-5.805 2.387-7.244-1.58-4.167-6.323 2.72-7.572 3.832-1.582 1.41-7.88 6.045-9.901 4.64-.701-.487-.07-2.29-1.027-3.128-.47-.41-2.477-.6-3.05-.548.358-1.494-.346-3.427-2.055-2.91-2.149.65-1.219 3.838-2.58 5.002-2.53 2.164-5.535-2.112-8.245-1.992.414-1.755 3.485-8.062-1.399-6.144-1.246.49-2.13 3.351-2.44 4.54-.792 3.036-.222 3.593-3.509 4.45.257-1.76-.2-3.948.649-5.521.696-1.289 4.305-4.645.462-5.063-4.74-.516-4.274 7.672-4.855 10.44-4.206-2.549-6.974 1.098-9.48 4.252.447-1.419 1.553-15.557-2.965-11.237-1.292 1.237.138 3.066.05 4.478-.078 1.28-.5 2.422-.995 3.618-.796 1.921-1.72 3.887-2.974 5.524-1.573 2.059-1.015 2.22-2.82.823-2.425-1.873-3.577-6.624-3.457-9.525.09-2.16 1.196-6.548-2.384-5.531-3.507.996-1.649 7.974-1.296 10.453.381 2.687.635 5.436.183 8.173-2.984-3.05-3.42 3.302-4.017 4.385-.98 1.777-2.868 2.647-4.335 3.86-.8-2.794 2.405-5.157 1.77-7.38-1.194-4.165-4.571 1.716-5.313 2.87-.619.963-2.635 6.442-3.365 6.933-1.023.69-7.605-2.527-8.27-3.14-1.223-1.125-.778-4.272-2.316-4.99-4.72-2.197-1.932 5.735-1.005 7.375 2.419 4.284 3.516 9.456 2.949 14.504-.858-.302-1.915-1.312-2.468-2.077-1.076-1.49-.685-3.865-1.808-4.987-3.288-3.28-3.673 2.878-3.406 4.791.5 3.588 2.291 4.75 3.778 7.734 1.368 2.75-.445 6.069-.828 9.125-3.429-3.3-18.195-.543-14.396 4.502 1.978 2.633 4.318-2.377 6.598-2.25 4.083.225 6.235 5.295 5.967 8.846-.497-1.898-2.422-3.761-3.746-1.444-.897 1.573.635 4.26 1.374 5.823-.906-.444-5.372-2.52-6.246-2.161-3.44 1.414 1.3 4.151 2.537 4.698 4.224 1.868 6.887 3.92 8.2 8.992-2.367-.757-1.955-1.878-3.552-3.043-1.466-1.07-1.74-.518-3.09-.868-2.362-.611-5.441-1.427-8.11-.318-1.97.819-5.287 3.31-5.906 5.65-.757 2.874.844 3.606 2.904 2.143 2.45-1.739 2.897-5.105 6.583-4.96 1.769.068 3.52.995 4.64 2.325.835.993 1.323 2.43 2.12 3.495.703.94 2.564 2.259 2.957 3.254 1.418 3.595-1.276 6.795-3.083 9.314-.419-.554-3.477-1.758-4.11-1.878-2.94-.561-4.037.798-2.199 3.512.58.856 1.798 1.216 2.436 1.994.711.87 1.112 2.2 1.818 3.144 1.393 1.863 3.115 2.822 4.778 4.322-.613.41-.546-.624-1.102-.41-.404.156-1.107-.155-1.617.014-.828.275-.718 1.717-1.248 1.929-3.299 1.314-6.627-3.615-9.586-3.775-1.614-.088-2.975.994-2.2 3.022.538 1.412 2.87 2.178 4.036 2.767 3.246 1.644 6.478 2.868 9.948 1.607 2.797 2.438 6.159 3.64 9.674 3.675-2.011.998-4 2.235-4.702 4.721-1.189-1.23-4.108-6.952-5.633-2.462-1.045 3.087 3.723 6.871 5.92 8.262-2.555.755-4.677.907-7.277.607-1.357-.156-4.337-1.974-3.238 1.748 1.182 4.016 8.24 2.21 10.48 1.516.083-1.198-10.77 12.108-3.158 9.489 2.176-.748 2.385-5 5.418-5.373 3.503-.43 3.855 3.077 5.882 5.646 1.01 1.282 5.67 4.165 5.449 5.265-.191.952-2.75 1.496-3.293 2.828-.633 1.55-.347 2.746.532 4.078 1.538 2.333 4.36 2.691 6.592 3.604 3.164 1.295 4.31 2.867 5.73 6.217-2.502.12-9.62 7.36-5.258 8.648 1.625.48 1.372-.966 2.049-1.765.273-.516.547-1.03.821-1.545.458-1.198.965-1.271 1.52-.22.123-.031 1.61.388 1.947.409 1.708.105 2.85-1.192 4.266-1.893 1.023-.506 2.024-.418 2.795-1.586-.089.135.554-2.51.565-2.536.276-.637.985-.547 1.31-1.234-8.749-9.085-14.457-21.119-15.489-34.464C36.42 132.776 33 128.288 33 123v-13c0-5.035 3.1-9.345 7.497-11.126.531.374 1.27 0 1.503-.842-.463-1.506 3.296-27.854 13-34.876 3.618-2.438 23.008-2.619 42.313-2.606 19.096.014 38.108.195 41.687 2.606 9.704 7.022 13.463 33.37 13 34.876.233.843.972 1.216 1.503.842z" id="c"/></defs><mask id="b" fill="#fff"><use href="#a"/></mask><g mask="url(&quot;#b&quot;)"><use class="CustomColor" fill="var(--avataaar-hair-color)" href="#c" transform="translate(35)"/></g></svg>