<svg width="280" height="280" xmlns="http://www.w3.org/2000/svg"><defs><path id="a" d="M0 0h264v280H0z"/><path d="M120 54H20v101c0 5.523-4.477 10-10 10s-10-4.477-10-10V44C0 19.7 19.7 0 44 0h52c24.3 0 44 19.7 44 44v111c0 5.523-4.477 10-10 10s-10-4.477-10-10V54z" id="b"/><rect id="c" x="74" y="50" width="118" height="36" rx="8"/></defs><g transform="translate(62 20)"><path d="M1 48h22.671v105.664c0 6.26-5.075 11.336-11.335 11.336C6.076 165 1 159.925 1 153.664V48zm115.329 0H139v105.664c0 6.26-5.075 11.336-11.336 11.336-6.26 0-11.335-5.075-11.335-11.336V48z" fill="#F4F4F4"/><use class="CustomColor" fill="var(--avataaar-hat-color)" href="#b"/></g><g transform="translate(-1)"><use filter="url(&quot;#c&quot;)" href="#c"/><use fill="#F4F4F4" href="#c"/></g></svg>