<svg width="280" height="280" xmlns="http://www.w3.org/2000/svg"><defs><path id="a" d="M0 0h264v280H0z"/><path d="M129.66 38.357A60.834 60.834 0 01134 61v8H2v-8c0-8.025 1.55-15.688 4.366-22.707C-.037 24.83-1.28 13.773 2.636 5.12c7.505-2.276 16.198-.47 26.08 5.419C38.486 3.888 50.289 0 63 0h10c12.722 0 24.535 3.895 34.31 10.557 9.894-5.904 18.597-7.716 26.11-5.437 3.922 8.666 2.669 19.745-3.76 33.237z" id="b"/><path d="M28.716 10.539c-9.957 6.778-17.804 16.426-22.35 27.754C-.037 24.83-1.28 13.773 2.636 5.12c7.505-2.276 16.198-.47 26.08 5.419zm100.943 27.818c-4.538-11.346-12.386-21.01-22.349-27.8 9.894-5.904 18.597-7.716 26.11-5.437 3.922 8.666 2.669 19.745-3.76 33.237z" id="c"/><path d="M21.862 15.96a61.277 61.277 0 00-11.433 14.08c-2.925-8.108-3.426-13.719-1.502-16.832 2.651-1.146 6.963-.23 12.935 2.751zm103.49 13.714a61.284 61.284 0 00-11.274-13.77c5.803-2.852 10.005-3.715 12.608-2.59 1.886 3.053 1.442 8.506-1.333 16.36z" id="d"/><path d="M67.285 61.451C83.23 49.817 105.159 44 133.073 44c27.912 0 49.799 5.817 65.659 17.45A8 8 0 01202 67.9v30.47a4 4 0 01-6.135 3.383C179.223 91.25 158.536 86 133.805 86c-24.922 0-46.165 5.331-63.73 15.994A4 4 0 0164 98.575V67.914a8 8 0 013.285-6.463z" id="e"/></defs><g transform="translate(64 4)"><use class="CustomColor" fill="var(--avataaar-hat-color)" href="#b"/><use opacity=".24" href="#c"/><use opacity=".3" fill="#FFF" href="#d"/></g><g transform="translate(-1)"><use filter="url(&quot;#e&quot;)" href="#e"/><use fill="#F4F4F4" href="#e"/></g></svg>