<svg width="280" height="280" xmlns="http://www.w3.org/2000/svg"><defs><path id="a" d="M0 0h264v280H0z"/><path d="M66 0c36.45 0 66 29.55 66 66v5H0v-5C0 29.55 29.55 0 66 0z" id="b"/><path d="M67.285 61.451C83.23 49.817 105.159 44 133.073 44c27.912 0 49.799 5.817 65.659 17.45A8 8 0 01202 67.9v30.47a4 4 0 01-6.135 3.383C179.223 91.25 158.536 86 133.805 86c-24.922 0-46.165 5.331-63.73 15.994A4 4 0 0164 98.575V67.914a8 8 0 013.285-6.463z" id="c"/></defs><g transform="translate(66 12)"><circle fill="#F4F4F4" cx="66" cy="8" r="20"/><use class="CustomColor" fill="#D8D8D8" href="#b"/></g><g transform="translate(-1)"><use filter="url(&quot;#c&quot;)" href="#c"/><use fill="#F4F4F4" href="#c"/></g></svg>