<svg width="280" height="280" xmlns="http://www.w3.org/2000/svg"><defs><path id="a" d="M0 0h264v280H0z"/><path d="M72 21c54.773 0 72 47.803 72 82.045v73.865c0 19.495-22.633 19.537-22.633-10.921V86.535c0-6.075-3.732-9-9.816-9H32.45c-6.084 0-9.816 2.925-9.816 9v79.454C22.633 196.447 0 196.405 0 176.91v-73.865C0 68.803 17.227 21 72 21z" id="b"/></defs><g transform="translate(60)"><g transform="translate(0 176)" fill="#F4F4F4"><circle cx="9" cy="65" r="9"/><path d="M8 0h2v58H8z"/></g><g transform="translate(126 168)" fill="#F4F4F4"><circle cx="9" cy="65" r="9"/><path d="M8 0h2v58H8z"/></g><circle fill="#F4F4F4" cx="72" cy="20" r="20"/><mask id="c" fill="#fff"><use href="#b"/></mask><use class="CustomColor" fill="#F4F4F4" href="#b"/><path opacity=".2" mask="url(&quot;#c&quot;)" d="M-1 21h146v46H-1z"/><g fill="#FFF" opacity=".5"><path d="M41.5 50L29 32h25zM72.5 50L60 32h25zM103.5 50L91 32h25z"/></g><g opacity=".5"><path d="M25.5 41L38 59H13zM56.5 41L69 59H44zM87.5 41L100 59H75zM118.5 41L131 59h-25z"/></g></g></svg>