<svg width="280" height="280" xmlns="http://www.w3.org/2000/svg"><g class="CustomColor" opacity=".8" fill="#FF5353"><path d="M111.958 100c-2.55 0-5.074 1.98-6.458 3.82-1.39-1.84-3.907-3.82-6.458-3.82-5.49 0-9.042 3.334-9.042 7.641 0 5.73 4.412 9.13 9.042 12.736 1.653 1.236 4.78 4.4 5.166 5.094.386.693 2.106.718 2.584 0 .477-.718 3.51-3.858 5.166-5.094 4.627-3.606 9.042-7.006 9.042-12.736 0-4.307-3.552-7.641-9.042-7.641zM164.958 100c-2.55 0-5.074 1.98-6.458 3.82-1.39-1.84-3.907-3.82-6.458-3.82-5.49 0-9.042 3.334-9.042 7.641 0 5.73 4.412 9.13 9.042 12.736 1.653 1.236 4.78 4.4 5.166 5.094.386.693 2.106.718 2.584 0 .477-.718 3.51-3.858 5.166-5.094 4.627-3.606 9.042-7.006 9.042-12.736 0-4.307-3.552-7.641-9.042-7.641z"/></g></svg>