<svg width="280" height="280" xmlns="http://www.w3.org/2000/svg"><g opacity=".6"><path d="M103.241 110.346a6 6 0 1010.699 2.8 1.998 1.998 0 00-.125-.739 7.509 7.509 0 00-.144-.372 6.007 6.007 0 00-1.646-2.484c-2.126-2.234-5.519-3.551-9.027-3.551-4.834 0-8.991 2.649-10.838 6.447-.54 1.111.387 1.853 1.278 1.125 2.436-1.993 5.82-3.228 9.56-3.228.08 0 .162 0 .243.002zM161.241 110.346a6 6 0 1010.699 2.8 1.998 1.998 0 00-.125-.739 7.509 7.509 0 00-.144-.372 6.007 6.007 0 00-1.646-2.484c-2.126-2.234-5.519-3.551-9.027-3.551-4.834 0-8.991 2.649-10.838 6.447-.54 1.111.387 1.853 1.278 1.125 2.436-1.993 5.82-3.228 9.56-3.228.08 0 .162 0 .243.002z"/></g></svg>