<svg width="280" height="280" xmlns="http://www.w3.org/2000/svg"><g transform="translate(76 90)"><defs><path d="M14 14.048c9.61 0 14 4.451 14-2.486C28 4.624 21.732 0 14 0S0 4.624 0 11.562c0 6.937 4.39 2.486 14 2.486z" id="a"/><path d="M14 14.048c9.61 0 14 4.451 14-2.486C28 4.624 21.732 0 14 0S0 4.624 0 11.562c0 6.937 4.39 2.486 14 2.486z" id="c"/></defs><g transform="translate(16 13)"><mask id="b" fill="#fff"><use href="#a"/></mask><use fill="#FFF" href="#a"/><circle class="CustomColor" opacity=".7" mask="url('#b')" cx="14" cy="10" r="6"/></g><g transform="translate(68 13)"><mask id="d" fill="#fff"><use href="#c"/></mask><use fill="#FFF" href="#c"/><circle class="CustomColor" opacity=".7" mask="url('#d')" cx="14" cy="10" r="6"/></g></g></svg>