<svg width="280" height="280" xmlns="http://www.w3.org/2000/svg"><g opacity=".6"><path d="M91.611 97.185c4.24-5.769 6.878-5.484 13.313-.629l.67.508C110.422 100.726 112.708 102 116 102a2 2 0 100-4c-2.066 0-3.901-1.022-7.989-4.123-.375-.285-.492-.373-.678-.513-3.76-2.837-5.959-4.077-8.695-4.372-3.684-.398-7.058 1.482-10.25 5.823a2 2 0 003.223 2.37zM172.388 97.185c-4.24-5.769-6.877-5.484-13.312-.629l-.67.508C153.578 100.726 151.292 102 148 102a2 2 0 110-4c2.066 0 3.901-1.022 7.989-4.123.375-.285.492-.373.678-.513 3.76-2.837 5.959-4.077 8.695-4.372 3.684-.398 7.058 1.482 10.25 5.823a2 2 0 01-3.224 2.37z" class="CustomColor"/></g></svg>