<svg width="280" height="280" xmlns="http://www.w3.org/2000/svg"><g opacity=".6"><path d="M112.37 88.876c-1.97 2.905-5.546 4.64-8.738 5.684-3.943 1.29-18.551 3.379-15.112 11.348.052.122.219.123.272.002 1.153-2.645 17.465-5.123 18.973-5.704 4.445-1.709 8.393-5.49 9.162-10.543.352-2.317-.637-6.049-1.548-7.55-.11-.18-.374-.136-.43.069-.36 1.331-1.41 4.971-2.58 6.694M151.63 88.876c1.97 2.905 5.546 4.64 8.738 5.684 3.943 1.29 18.551 3.379 15.112 11.348a.147.147 0 01-.272.002c-1.153-2.645-17.465-5.123-18.973-5.704-4.445-1.709-8.393-5.49-9.162-10.543-.352-2.317.637-6.049 1.548-7.55.11-.18.374-.136.43.069.36 1.331 1.41 4.971 2.58 6.694" class="CustomColor"/></g></svg>