<svg width="280" height="280" xmlns="http://www.w3.org/2000/svg"><g opacity=".6"><path d="M107.234 102.422l-.911.402c-5.242 2.081-13.188 1.209-18.046-1.123-.567-.272-.18-1.153.402-1.108 14.919 1.151 24.963-8.146 28.375-14.44.101-.187.407-.208.482-.034 2.308 5.319-4.45 13.985-10.302 16.303zM156.766 102.422l.911.402c5.242 2.081 13.188 1.209 18.046-1.123.567-.272.18-1.153-.402-1.108-14.919 1.151-24.963-8.146-28.375-14.44-.101-.187-.407-.208-.482-.034-2.308 5.319 4.45 13.985 10.302 16.303z" class="CustomColor"/></g></svg>