<svg width="280" height="280" xmlns="http://www.w3.org/2000/svg"><g transform="translate(49 72)"><defs><path d="M84 69.297c-6.792-3.586-16.422-4.148-21.611-2.165-5.775 2.205-10.884 8.451-19.75 5.696-.37-.114-.73.217-.619.58 1.374 4.51 9.008 7.599 11.602 7.7 11.34.442 20.473-8.278 30.378-8.947 9.906.67 19.04 9.389 30.379 8.947 2.594-.101 10.228-3.19 11.601-7.7.111-.363-.25-.694-.618-.58-8.867 2.755-13.976-3.49-19.75-5.696-5.19-1.983-14.82-1.42-21.612 2.165z" id="a"/></defs><use class="CustomColor" fill="var(--avataaar-facial-hair-color)" href="#a"/></g></svg>