<svg width="280" height="280" xmlns="http://www.w3.org/2000/svg"><g transform="translate(0 170)"><defs><path d="M105.192 29.052H104c-39.765 0-72 32.235-72 72V110h200v-8.948c0-39.765-32.235-72-72-72h-1.192c.127.983.192 1.984.192 3 0 13.807-12.088 25-27 25s-27-11.193-27-25c0-1.016.065-2.017.192-3z" id="a"/></defs><mask id="b" fill="#fff"><use href="#a"/></mask><use class="CustomColor" fill="#E6E6E6" href="#a"/><g mask="url(&quot;#b&quot;)" fill="#262E33"><path d="M0 0h264v110H0z"/></g><path d="M100.785 29.122C62.512 30.804 32 62.365 32 101.052V110h69.362C97.96 97.92 96 83.709 96 68.5c0-14.327 1.74-27.769 4.785-39.378zM163.638 110H232v-8.948c0-38.345-29.975-69.69-67.771-71.878C167.265 40.77 169 54.194 169 68.5c0 15.209-1.96 29.42-5.362 41.5z" fill="#3A4C5A"/><path d="M181 86l9.556-7.167a4 4 0 014.856.043L202 84l-21 2z" fill="#E6E6E6"/><path d="M101 28c-4 19.333-2.333 46.667 5 82H90L76 74l6-9-6-6 19-30c2.028-.63 4.028-.964 6-1zM163 28c4 19.333 2.333 46.667-5 82h16l14-36-6-9 6-6-19-30c-2.028-.63-4.028-.964-6-1z" fill="#2F4351"/><path d="M156 21.539c6.772 4.597 11 11.117 11 18.349 0 7.4-4.428 14.057-11.48 18.668l-5.94-4.68-4.58.332 1-3.151-.078-.061C152.022 47.853 156 42.7 156 36.876V21.54zm-48 0c-6.772 4.597-11 11.117-11 18.349 0 7.4 4.428 14.057 11.48 18.668l5.94-4.68 4.58.332-1-3.151.078-.061C111.978 47.853 108 42.7 108 36.876V21.54z" fill="#F2F2F2"/></g></svg>